<svg width="414" height="397" viewBox="0 0 414 397" fill="none" xmlns="http://www.w3.org/2000/svg">
<path fill-rule="evenodd" clip-rule="evenodd" d="M142.858 284.346C142.911 279.637 143.024 274.928 143.171 270.221C149.846 269.498 156.521 268.775 163.196 268.051C164.901 267.866 166.605 267.682 168.309 267.497C170.159 267.297 172.009 267.096 173.859 266.896C174.051 266.875 174.311 266.87 174.6 266.864C175.522 266.845 176.74 266.821 177.014 266.264C177.414 265.451 177.209 263.307 177.054 261.681C176.992 261.033 176.939 260.468 176.934 260.102C176.907 258.075 176.881 256.049 176.854 254.023C176.828 251.996 176.801 249.969 176.775 247.943L176.774 247.911C176.58 233.009 176.386 218.107 176.191 203.205C177.79 203.268 179.388 203.325 180.986 203.379C182.022 203.414 183.058 203.452 184.096 203.49C190.02 203.704 195.962 203.919 201.88 203.7C205.368 203.571 208.673 202.439 211.966 201.104C213.716 200.394 215.449 199.621 217.169 198.807C217.326 198.733 217.573 198.577 217.859 198.398C218.552 197.96 219.472 197.38 219.886 197.476C220.588 197.64 221.628 199.451 222.391 200.78C222.671 201.268 222.914 201.692 223.09 201.944C225.161 204.93 227.233 207.917 229.304 210.903L229.395 211.032C229.657 211.411 229.956 211.796 230.261 212.189C230.933 213.053 231.635 213.957 232.047 214.921C232.361 215.655 232.534 216.576 232.699 217.455C232.777 217.87 232.854 218.275 232.942 218.646C236.359 233.018 239.701 247.483 242.191 262.135C242.726 265.289 243.235 268.464 243.533 271.666C243.555 271.91 243.584 272.172 243.613 272.445C243.776 273.946 243.978 275.809 243.493 277.103C242.887 278.721 241.019 279.451 239.676 279.976C239.588 280.011 239.502 280.044 239.419 280.077C236.793 281.117 234.043 281.736 231.322 282.292C224.766 283.631 218.129 284.408 211.503 285.037C210.749 285.108 209.986 285.153 209.222 285.197C207.936 285.272 206.646 285.348 205.384 285.553C204.851 285.64 204.702 285.583 204.624 285.648C204.561 285.7 204.543 285.83 204.409 286.175C204.116 286.923 204.161 288.234 204.199 289.361C204.217 289.86 204.232 290.323 204.217 290.684C204.158 292.068 204.099 293.452 204.04 294.836C203.981 296.22 203.922 297.604 203.863 298.989C203.542 306.539 203.22 314.09 202.899 321.64C202.79 324.192 202.682 326.743 202.573 329.295C202.356 334.399 202.139 339.502 201.921 344.605C201.861 346.018 201.801 347.43 201.741 348.842C201.678 350.33 201.614 351.818 201.551 353.307C201.53 353.81 201.536 354.36 201.542 354.925C201.556 356.103 201.57 357.346 201.336 358.36C201.208 358.916 201.246 359.12 201.182 359.19C201.115 359.264 200.938 359.193 200.347 359.228C198.557 359.332 196.723 359.192 194.904 359.054C194 358.985 193.101 358.916 192.211 358.878C190.745 358.815 189.278 358.752 187.812 358.689C186.238 358.621 184.664 358.554 183.091 358.486C182.878 358.477 182.659 358.487 182.445 358.498C181.784 358.531 181.166 358.561 180.902 357.996C180.601 357.352 180.674 355.913 180.733 354.763C180.757 354.285 180.779 353.857 180.77 353.558L180.517 345.045L179.822 321.675C179.67 316.553 179.518 311.431 179.366 306.309C179.202 300.807 179.038 295.304 178.874 289.802C175.496 290.62 172.117 291.438 168.739 292.256L168.732 292.258C163.736 293.467 158.74 294.677 153.744 295.885C153.126 296.035 152.477 296.237 151.812 296.443C150.011 297.001 148.094 297.596 146.366 297.298C144.016 296.892 143.045 295.685 142.913 293.001C142.786 290.426 142.817 287.832 142.848 285.25C142.851 284.949 142.855 284.647 142.858 284.346ZM211.031 238.74L210.192 236.796L209.827 238.942L206.276 259.842L206.106 260.838L206.95 260.771L219.104 259.802L220.088 259.724L219.634 258.671L211.031 238.74ZM207.708 259.157L210.726 241.398L218.036 258.333L207.708 259.157Z" fill="#7EEBEA"/>
<path fill-rule="evenodd" clip-rule="evenodd" d="M311.984 69.5939C311.735 71.9185 311.912 74.453 309.731 75.0661C307.712 75.6337 305.497 75.4745 303.439 75.673C301.126 75.8968 298.82 76.2018 296.511 76.4773C293.602 76.8242 294.017 75.4786 293.38 72.4887C292.799 69.7583 291.871 67.0336 291.099 64.3709C290.741 63.1333 290.312 61.9946 289.823 60.8284C289.38 59.7723 289.591 58.3363 289.113 57.4487C287.484 54.4205 279.538 62.7007 278.8 61.0687C280.145 59.8095 282.472 58.4004 282.884 56.2458C283.369 53.7134 282.031 52.9571 280.35 53.8829C276.215 56.1626 271.441 57.9439 266.931 58.7746C268.39 57.6017 281.584 48.3554 277.156 45.6127C276.158 44.9946 274.825 46.1581 273.925 46.5982C272.496 47.2972 271.004 47.7657 269.513 48.2236C267.942 48.706 266.367 49.1702 264.787 49.6089C263.678 49.9167 261.703 51.01 260.623 50.7402C259.527 50.466 261.469 49.6473 261.787 49.4545C263.174 48.6142 264.538 47.7113 265.891 46.7969C268.292 45.1745 270.51 43.2952 272.336 40.7868C273.714 38.8941 275.99 34.7608 275.03 32.1437C274.474 30.6266 273.256 29.2245 272.54 27.7873C271.705 26.1085 271.03 24.3193 270.304 22.5703C271.519 23.2129 272.882 23.3774 274.122 23.9542C275.363 24.5314 276.622 24.9984 277.912 25.4274C280.5 26.288 283.081 26.4409 285.645 27.1389C288.549 27.9286 291.574 28.8118 294.524 29.2683C297.092 29.6651 299.401 30.5107 301.601 32.1952C306.095 35.6362 309.212 40.5795 310.789 46.6925C311.713 50.2736 311.938 54.0101 312.046 57.7361C312.161 61.6642 312.402 65.6828 311.984 69.5939ZM286.764 69.8829C283.626 72.635 279.968 74.7854 276.601 77.1266C274.674 78.4654 272.706 79.7174 270.74 80.9725C269.346 81.8632 267.651 83.5029 266.116 83.9598C265.144 84.2488 265.217 84.271 264.602 83.2056C264.014 82.1883 263.501 81.0929 262.952 80.0451C261.938 78.1134 260.915 76.1889 259.891 74.2643C257.597 69.9506 255.307 65.6373 252.897 61.4151C250.478 57.1783 248.159 52.8636 245.816 48.567C244.728 46.5694 243.645 44.5641 242.49 42.6214C241.608 41.1379 239.346 38.8753 240.42 37.1288C241.418 35.5064 243.691 34.1586 245.035 32.9306C246.678 31.4313 248.33 29.9475 249.969 28.4405C253.491 25.2009 256.921 21.8204 260.44 18.5766C263.426 24.8782 266.94 30.7858 270.483 36.6444C267.279 39.1047 264.042 41.4434 260.664 43.5497C258.17 45.1053 254.354 47.2072 252.779 50.1582C251.227 53.0641 252.751 56.4164 255.518 56.4696C257.172 56.5017 258.821 55.9744 260.443 55.6736C261.614 55.4559 263.752 54.4407 264.808 55.1561C262.91 56.6128 256.026 60.8573 259.737 64.5792C262.389 67.2393 266.874 63.3572 269.739 64.1563C268.866 66.1729 267.958 69.3892 270.382 70.4856C272.399 71.3985 275.04 69.6973 276.856 68.7953C278.168 68.1434 279.471 67.4693 280.761 66.758C281.787 66.192 283.015 65.0449 284.111 64.801C285.391 64.5156 287.994 68.8035 286.764 69.8829ZM228.429 218.499C230.225 218.105 231.147 217.212 231.712 219.835C232.219 222.184 232.721 224.446 233.373 226.752C230.569 227.043 228.095 228.654 226.05 230.92C224.594 232.534 221.697 236.389 222.416 239.092C224.16 245.663 232.97 230.923 234.018 229.348C235.299 231.601 235.771 234.552 236.407 237.129C236.861 238.963 238.544 242.479 236.319 242.925C233.196 243.551 227.338 244.95 227.708 250.271C228.145 256.551 234.787 256.516 238.512 256.798C240.613 256.957 240.623 258.981 240.922 261.248C241.055 262.261 241.474 263.631 240.758 264.373C240.123 265.031 238.178 265.05 237.352 265.263C234.942 265.885 232.533 266.519 230.124 267.141C227.389 267.847 225.942 266.858 223.385 265.957C222.439 265.623 221.488 265.764 221.418 264.489C221.375 263.707 222.012 262.497 222.221 261.723C223.046 258.661 223.748 255.509 223.985 252.293C224.331 247.622 223.899 240.617 219.118 239.705C216.843 239.271 216.405 239.13 215.378 236.561C214.267 233.784 212.504 231.212 212.93 228.012C213.238 225.693 212.718 221.306 213.948 219.383C214.517 218.494 215.625 217.964 216.382 217.311C217.346 216.479 218.275 215.589 219.173 214.657C219.929 213.874 220.85 212.343 221.707 211.777C222.754 211.086 222.786 211.557 223.538 212.637C224.648 214.232 226.412 218.942 228.429 218.499ZM233.504 228.879C232.882 230.389 231.444 231.794 230.528 233.055C229.607 234.324 228.735 235.664 227.707 236.814C226.576 238.079 222.56 241.136 223.444 237.021C224.133 233.822 226.71 231.23 228.978 229.633C229.417 229.323 234.557 226.323 233.504 228.879ZM237.899 244.113C238.297 246.255 238.511 248.463 238.851 250.62C239.025 251.723 239.989 254.387 239.596 255.448C238.931 257.246 232.937 255.117 231.695 254.499C228.738 253.026 227.38 249.245 230.107 246.553C231.142 245.533 237.5 241.972 237.899 244.113ZM241.828 269.837C242.161 271.881 243.138 273.777 241.523 275.323C240.183 276.607 237.987 277.482 236.335 277.939C234.084 278.562 233.36 277.044 232.169 275.093C230.887 272.993 229.523 270.965 228.108 268.995C232.552 267.798 236.996 266.6 241.441 265.404C241.438 266.894 241.589 268.377 241.828 269.837ZM231.178 279.327C228.86 279.182 226.367 280.021 224.016 280.242C221.081 280.518 218.154 280.919 215.215 281.156C215.968 278.267 217.32 275.69 218.378 272.961C219.439 270.222 220.184 269.926 222.624 269.715C224.886 269.519 226.482 268.582 228.151 270.891C229.887 273.292 231.46 275.901 233.046 278.445C232.506 278.88 231.862 279.37 231.178 279.327ZM214.611 279.916C214.039 280.417 212.275 278.993 211.681 278.717C210.525 278.179 210.269 278.006 209.665 276.65C209.147 275.483 208.322 274.158 208.16 272.826C207.946 271.071 208.591 268.761 208.826 267.017C209.452 268.833 211.506 269.043 212.895 269.34C213.944 269.565 217.054 269.207 217.846 270.106C218.72 271.1 217.111 273.871 216.691 274.915C216.19 276.161 215.572 279.074 214.611 279.916ZM213.49 281.356C212.802 281.49 210.821 282.314 210.861 280.802C210.906 279.074 213.631 280.937 213.49 281.356ZM210 281.266C209.874 282.72 207.273 282.599 207.213 281.32C207.112 279.158 210.2 278.943 210 281.266ZM207.025 242.041C206.36 244.32 202.309 245.136 200.753 245.837C199.332 246.478 195.087 249.436 193.622 248.363C198.582 244.263 203.664 240.244 207.866 235.008C208.038 236.302 207.776 237.382 207.459 238.606C207.173 239.711 207.32 241.032 207.025 242.041ZM205.792 250.352C205.078 255.935 204.378 261.59 203.412 267.117C201.572 266.441 200.054 265.07 198.121 264.592C196.356 264.156 194.534 264.146 192.755 264.464C188.964 265.142 185.584 267.398 182.277 269.597C181.972 265.768 181.339 261.671 181.414 257.829C181.476 254.638 186.015 253.693 188.075 252.375C189.32 251.577 190.446 250.455 191.866 250.177C193.326 249.891 194.736 249.9 196.178 249.364C199.589 248.098 202.799 246.091 206.14 244.595C206.414 246.511 206.034 248.464 205.792 250.352ZM202.605 273.978C202.453 275.247 202.644 277.512 201.84 278.479C201.084 279.39 199.467 279.42 198.469 279.667C195.428 280.42 192.39 281.179 189.354 281.956C187.995 282.303 186.636 282.635 185.272 282.945C184.622 283.093 182.99 283.844 182.442 283.221C181.922 282.629 182.309 280.74 182.337 279.947C182.393 278.364 182.468 276.775 182.385 275.191C182.226 272.153 182.367 270.989 184.718 269.417C187.215 267.747 189.794 266.604 192.605 265.984C195.451 265.358 198.162 265.701 200.871 267.015C201.625 267.381 202.756 267.831 203.107 268.809C203.584 270.139 202.766 272.63 202.605 273.978ZM199.182 322.955C198.067 323.796 195.641 323.652 194.361 323.823C192.294 324.098 190.213 323.941 188.159 323.557C186.613 323.269 184.306 322.869 183.121 321.563C181.437 319.708 183.38 319.622 184.668 319.753C188.414 320.132 192.207 319.867 195.949 319.542C196.678 319.478 198.636 318.709 199.339 319.069C200.237 319.529 199.962 322.366 199.182 322.955ZM197.058 352.939C190.079 352.123 186.033 345.17 183.502 338.063C182.143 334.247 182.633 330.243 182.499 326.208C182.475 325.471 182.09 323.642 182.72 323.092C183.311 322.574 185.706 324.174 186.353 324.365C189.673 325.344 193.344 325.437 196.67 324.487C198.112 324.075 198.919 323.309 199.377 325.027C199.745 326.411 199.14 328.961 199.074 330.411C198.96 332.919 199.287 353.199 197.058 352.939ZM183.116 352.946C183.089 351.729 182.579 339.422 183.074 339.385C184.546 343.206 186.059 346.624 188.739 349.435C190.109 350.871 191.648 352.166 193.361 352.937C194.004 353.227 197.649 353.446 197.828 354.407C198.14 356.087 195.652 355.409 194.914 355.273C194.321 355.163 193.789 354.859 193.208 354.732C192.1 354.491 191.054 354.815 189.943 354.842C188.254 354.883 186.595 354.67 184.905 354.846C183.36 355.006 183.157 354.793 183.116 352.946ZM184.146 297.747C190.121 295.424 195.114 299.824 198.267 305.582C200.065 308.867 200.467 311.163 200.152 315.051C200.04 316.443 200.248 317.385 199.184 317.953C198.131 318.514 195.739 318.098 194.599 318.162C191.323 318.346 188.059 318.591 184.783 318.357C182.654 318.205 182.354 317.772 182.391 315.286C182.435 312.294 182.228 309.316 182.087 306.32C181.935 303.077 181.01 298.967 184.146 297.747ZM182.191 293.438C182.195 291.24 182.085 288.984 182.197 286.79C182.308 284.614 183.078 284.721 184.785 284.35C188.483 283.546 192.176 282.646 195.824 281.556C197.267 281.125 198.897 280.297 200.4 280.29C201.977 280.284 201.894 281.259 201.788 282.939C201.555 286.66 200.988 290.327 200.816 294.029C200.63 298.024 200.532 302.071 200.547 306.07C200.552 307.421 200.825 308.42 199.868 307.157C198.91 305.891 198.442 303.875 197.586 302.452C195.834 299.54 193.23 297.197 190.341 296.21C188.744 295.665 187.063 295.57 185.434 295.965C184.94 296.084 182.465 297.506 182.15 297.225C181.936 297.035 182.191 293.527 182.191 293.438ZM204.048 369.626C206.417 371.667 209.042 373.316 211.698 374.748C213.193 375.554 219.11 377.249 219.298 379.063C219.399 380.03 218.419 381.114 217.776 381.229C216.962 381.374 215.619 380.734 214.789 380.612C211.772 380.172 208.761 380.169 205.816 379.158C199.937 377.14 193.843 376.572 187.903 374.812C186.49 374.394 185.074 374.001 183.653 373.622C182.304 373.262 181.699 373.324 181.652 371.589C181.547 367.782 182.454 363.882 182.462 360.027C187.267 360.687 192.088 360.679 196.906 361.221C198.971 361.454 198.923 361.924 199.828 364.095C200.767 366.347 202.365 368.176 204.048 369.626ZM180.619 245.938C180.558 244.529 180.511 243.116 180.405 241.71C180.334 240.766 179.617 238.127 180.021 237.392C180.501 236.518 180.985 237.051 181.844 237.027C182.977 236.995 183.926 236.447 184.86 235.73C186.629 234.372 187.944 232.585 189.092 230.5C190.103 228.664 189.914 226.157 189.902 223.959C189.87 218.276 190.214 212.733 189.926 207.025C189.794 204.403 191.654 206.011 193.156 206.351C195.614 206.906 198.285 206.521 200.782 206.528C200.689 207.227 195.582 208.962 194.757 209.623C192.645 211.313 191.414 214.016 191.606 217.099C191.994 223.3 197.671 224.336 201.819 224.348C198.377 228.009 194.997 231.499 192.292 236.015C190.298 239.345 186.785 245.91 190.046 249.595C187.164 251.564 184.307 253.754 181.048 254.702C180.902 251.781 180.745 248.861 180.619 245.938ZM179.311 132.742C180.484 133.649 180.977 132.367 181.87 131.703C183.128 130.768 183.544 130.86 183.704 128.771C183.999 124.896 182.644 121.389 180.943 118.219C180.17 116.777 179.399 115.061 178.307 113.935C177.313 112.908 176.307 113.261 175.385 112.2C175.023 111.782 175.101 111.193 174.502 111.21C174.108 111.221 173.151 112.689 172.826 113.013C171.798 114.037 170.541 114.816 169.194 113.972C167.233 112.743 167.862 108.284 169.386 106.84C170.559 105.728 171.945 105.9 173.28 105.72C174.281 105.586 174.49 105.638 174.078 104.26C173.789 103.294 173.124 102.541 172.795 101.597C172.163 99.784 172.301 97.5808 172.028 95.662C171.783 93.9427 171.21 92.0833 171.23 90.3372C171.258 88.1138 171.862 87.5364 173.463 86.913C175.014 86.3093 176.299 84.9782 177.62 83.8601C179.115 82.5941 180.753 81.7582 182.29 80.6024C183.333 79.8172 184.007 78.2302 185.154 78.9715C186.517 79.8523 187.959 82.4023 189.118 83.705C187.422 85.0004 187.027 85.5669 187.261 88.103C187.476 90.4276 187.869 92.4995 189.346 94.119C189.914 94.7414 190.972 95.2397 191.412 95.9572C191.925 96.7931 191.592 96.0564 191.527 96.9998C191.493 97.509 191.158 97.8419 191.231 98.4302C191.556 101.043 194.051 99.5007 195.079 98.593C198.753 95.3503 191.894 92.775 190.265 91.5938C189.14 90.7771 188.583 88.1723 190.366 88.8644C191.552 89.3245 194.23 93.2273 194.502 89.6698C197.442 91.7246 199.256 96.0895 201.721 98.8494C203.499 100.84 205.887 103.048 204.476 106.226C202.678 110.279 199.112 112.118 195.857 113.866C192.7 115.562 193.355 120.36 195.043 123.297C196.019 124.995 197.297 125.99 198.835 126.815C200.406 127.658 200.733 128.649 201.076 130.604C201.457 132.774 201.052 133.648 199.49 134.769C197.966 135.863 196.372 136.924 194.745 137.78C191.225 139.633 187.574 139.75 183.83 140.381C182.519 140.603 181.261 141.064 180.545 139.499C179.74 137.738 179.681 134.706 179.311 132.742ZM178.745 124.315C177.864 123.756 175.737 125.612 174.624 125.693C172.822 125.825 171.639 125.775 170.04 126.925C167.017 129.098 164.508 131.896 162.084 134.93C159.354 138.347 156.639 141.783 153.918 145.211C152.684 146.763 151.445 148.307 150.192 149.836C149.205 151.042 148.239 152.737 147.017 153.597C147.081 152.576 147.601 151.853 147.786 150.905C147.894 150.352 147.706 149.882 147.775 149.352C147.798 149.179 148.182 148.581 148.241 148.385C148.397 147.867 148.588 147.355 148.773 146.817C148.945 146.315 148.92 145.795 149.095 145.27C149.275 144.73 149.769 144.372 149.94 143.84C150.442 142.281 149.611 141.558 148.283 141.595C148.803 138.477 149.03 136.952 151.74 135.852C154.329 134.802 156.859 133.622 159.237 131.98C161.349 130.523 163.111 128.422 165.141 126.798C166.959 125.343 169.222 123.82 169.203 120.837C170.233 121.678 171.199 122.386 172.378 121.548C173.373 120.842 173.505 120.272 174.655 120.139C175.594 120.031 176.176 120.002 177.014 120.499C178 121.083 178.134 121.489 178.709 119.769C179.361 120.43 181.011 123.183 180.956 124.272C180.926 124.873 180.85 125.143 180.232 125.302C179.355 125.526 179.389 124.724 178.745 124.315ZM174.637 287.227C174.208 288.018 172.401 287.872 171.703 287.862C169.576 287.828 168.832 285.68 167.899 283.605C166.427 280.332 164.228 273.535 166.642 270.101C168.547 267.39 172.259 270.805 173.559 272.852C174.681 274.621 174.348 277.273 174.452 279.396C174.54 281.185 175.484 285.668 174.637 287.227ZM168.825 288.413C167.974 289.436 165.214 289.219 164.087 289.439C162.075 289.831 160.075 290.302 158.124 291.017C156.671 291.548 155.235 292.98 154.852 290.544C154.53 288.495 154.69 286.038 154.721 283.971C154.754 281.741 154.948 279.539 155.109 277.318C155.218 275.817 154.945 273.054 155.964 271.902C156.842 270.909 158.977 270.813 160.117 270.484C161.989 269.943 163.945 269.234 165.891 269.476C164.756 273.183 164.66 277.071 165.877 280.765C166.224 281.819 169.35 287.781 168.825 288.413ZM154.519 273.645C154.045 279.221 153.568 284.832 154.024 290.437C154.052 290.77 154.384 292.302 154.24 292.541C154.091 292.79 152.909 292.918 152.641 292.994C151.576 293.298 150.512 293.62 149.44 293.89C147.353 294.415 147.081 292.829 146.671 290.502C145.794 285.517 147.494 280.113 148.525 275.326C149.027 272.994 149.398 272.726 151.304 272.532C152.63 272.398 154.72 271.275 154.519 273.645ZM146.461 294.448C145.664 295.321 144.867 291.204 144.796 290.784C144.518 289.118 144.673 287.429 144.677 285.737C144.684 283.093 144.516 280.462 144.512 277.832C144.511 276.409 143.624 273.5 145.024 272.747C145.435 272.526 147.066 272.618 147.436 272.909C148.206 273.513 147.903 273.904 147.674 274.955C147.164 277.314 146.723 279.684 146.279 282.063C145.843 284.395 145.413 286.639 145.621 289.047C145.689 289.844 146.969 293.892 146.461 294.448ZM171.892 268.467C173.836 267.808 173.94 269.599 173.937 271.314C173.64 271.041 170.878 268.81 171.892 268.467ZM145.89 142.595C145.414 143.54 142.397 143.798 141.535 144.046C139.839 144.535 138.142 145.02 136.451 145.529C133.282 146.483 130.19 147.558 126.942 148.057C128.726 144.621 129.281 141.654 128.949 137.365C128.53 131.951 127.998 126.592 126.962 121.292C125.94 116.066 124.758 110.875 123.619 105.684C123.059 103.134 122.454 100.632 121.71 98.1505C121.114 96.1619 120.182 93.6579 121.195 91.6191C123.764 93.8745 125.825 96.3046 127.291 99.7307C128.861 103.404 130.232 107.174 132.054 110.688C132.888 112.295 133.861 113.76 134.752 115.315C135.282 116.24 135.669 117.575 136.344 118.356C137.123 119.255 137.953 119.679 138.398 118.161C138.875 116.532 137.352 113.308 136.903 111.778C135.817 108.085 134.74 104.399 133.903 100.61C133.226 97.5472 132.106 93.8445 132.502 90.6132C132.894 87.4139 134.699 89.7039 135.612 91.1911C137.494 94.2575 138.621 97.8316 139.858 101.308C140.994 104.501 142.32 107.547 143.577 110.666C144.015 111.752 144.591 114.556 145.737 114.879C147.403 115.349 147.262 112.526 147.103 111.381C146.047 103.789 143.291 96.5201 142.719 88.7967C142.692 88.4276 142.293 85.5582 142.614 85.3183C143.235 84.8536 144.073 87.7649 144.341 88.4783C145.734 92.1883 146.705 96.0993 147.595 100.018C148.353 103.351 149.038 106.709 149.888 110.011C150.355 111.825 150.89 113.61 151.418 115.4C151.896 117.021 152.38 119.792 153.626 120.861C155.393 122.376 161.714 118.773 162.355 121.994C162.811 124.284 156.949 126.129 155.7 126.824C154.057 127.739 152.444 128.742 150.8 129.658C149.555 130.351 147.766 130.636 146.865 131.94C145.911 133.322 145.758 135.262 145.73 136.976C145.708 138.274 146.455 141.476 145.89 142.595ZM141.895 167.601C141.811 168.321 141.336 169.274 141.122 169.959C140.686 171.354 140.316 173.021 139.71 174.325C139.189 175.448 138.42 176.452 137.917 177.591C137.439 178.672 137.376 179.919 136.818 181.001C136.179 182.239 135.125 183.129 134.491 184.358C134.178 184.965 133.856 185.657 133.414 186.303C131.851 188.592 130.299 190.75 129.042 193.201C128.721 193.829 127.15 196.568 126.525 196.717C125.219 197.025 126.739 194.791 126.995 194.329C128.846 190.987 130.49 187.468 132.277 184.074C134.007 180.788 135.779 177.527 137.444 174.191C138.803 171.472 139.742 167.568 141.95 165.652C141.958 166.303 141.94 166.953 141.895 167.601ZM202.255 136.886C203.33 142.204 204.616 147.357 205.828 152.628C206.953 157.518 208.45 162.751 208.917 167.793C209.378 172.787 210.439 177.84 211.867 182.58C212.526 184.774 213.205 186.975 213.922 189.143C214.315 190.334 214.755 191.498 215.202 192.661C215.548 193.565 216.464 195.028 216.5 195.986C216.528 196.753 216.749 196.446 216.12 197.023C215.468 197.619 214.34 197.403 213.582 197.507C211.603 197.783 209.673 198.678 207.744 199.258C204.024 200.377 199.59 201.265 195.778 200.487C194.174 200.159 192.508 199.875 190.923 199.449C188.972 198.923 188.571 197.952 188.17 195.646C187.295 190.602 186.541 185.572 185.817 180.495C184.958 174.456 184.027 168.424 183.363 162.347C182.694 156.2 182.212 150.046 181.162 143.966C185.398 144.818 189.387 145.781 193.636 144.384C197.398 143.148 200.114 140.731 202.255 136.886ZM218.837 202.725C219.784 205.073 217.502 207.184 216.396 208.993C214.937 211.377 213.574 213.868 211.877 216.024C211.368 213.574 210.922 210.816 209.564 208.804C207.829 206.234 205.804 207.284 203.679 206.068C205.908 204.764 208.754 205.262 211.118 204.099C213.45 202.952 215.804 202.051 217.974 200.561C218.263 201.282 218.547 202.005 218.837 202.725ZM210.572 257.51C209.148 257.605 210.101 253.992 210.193 253.094C210.448 250.625 210.704 248.157 210.927 245.685C212.103 249.413 213.277 253.141 214.452 256.869C213.161 257.091 211.878 257.423 210.572 257.51ZM208.255 275.383C208.449 275.902 209.356 277.633 208.64 277.953C207.66 278.39 207.542 275.522 208.255 275.383ZM206.556 235.219C202.018 239.577 197.512 243.947 192.603 247.699C191.527 248.521 190.444 248.865 189.731 247.235C189.171 245.953 189.762 244.509 190.122 243.254C191.039 240.055 192.635 237.274 194.405 234.67C197.939 229.47 202.146 225.029 207.513 222.979C208.391 222.644 209.747 221.631 210.054 223.029C210.235 223.851 209.469 225.904 209.313 226.676C208.672 229.862 208.812 233.053 206.556 235.219ZM219.617 267.004C219.718 270.704 211.308 267.72 210.26 267.058C211.36 266.614 219.572 265.34 219.617 267.004ZM222.74 267.027C223.24 267.187 225.156 267.39 224.44 268.178C223.8 268.884 220.898 268.6 220.129 268.687C220.646 266.645 221.038 266.482 222.74 267.027ZM221.182 262.07C220.994 262.893 220.918 264.149 220.305 264.713C219.54 265.417 217.916 264.989 217.051 264.995C215.582 265.004 214.114 265.095 212.653 265.27C212.093 265.337 209.827 266.159 209.303 265.598C208.918 265.187 209.061 263.255 209.342 262.821C209.918 261.929 211.244 262.238 212.075 262.202C215.116 262.072 218.14 262.061 221.182 262.07ZM219.23 248.391C218.801 247.623 218.724 247.631 218.541 246.472C218.345 245.232 217.848 244.171 217.555 242.972C216.911 240.334 218.968 240.569 220.478 241.536C224.393 244.045 223.448 252.813 222.48 256.918C221.072 255.673 220.552 255.108 220.068 253.099C219.884 252.336 219.678 251.586 219.486 250.827C219.345 250.268 219.443 248.773 219.23 248.391ZM219.569 205.717C220.662 205.558 221.662 209.638 221.35 210.521C220.711 212.327 218.269 213.941 217.025 215.093C216.197 215.861 215.374 216.741 214.489 217.41C213.668 218.031 213.195 217.683 212.431 217.981C211.325 218.412 211.057 219.819 209.925 220.424C208.333 221.275 206.403 221.514 204.74 222.282C202.722 223.215 200.872 223.24 198.757 222.798C195.714 222.163 192.147 220.347 192.422 215.899C192.905 208.051 205.86 204.03 209.393 210.684C210.313 212.416 210.299 214.435 210.896 216.295C211.542 218.309 212.169 217.517 213.142 216.035C214.414 214.094 215.596 212.05 216.819 210.063C217.215 209.421 218.78 205.833 219.569 205.717ZM140.174 282.127C140.112 283.462 140.179 284.816 139.793 286.09C139.404 287.374 138.616 288.412 138.162 289.661C137.242 292.19 137.249 295.251 137.285 297.961C137.371 304.267 138.612 310.392 139.269 316.624C137.084 316.617 134.824 316.647 132.706 315.895C130.814 315.224 130.512 313.56 129.977 311.464C128.475 305.577 126.852 299.715 126.367 293.549C126.136 290.611 126.039 287.649 125.929 284.702C125.833 282.116 126.315 280.988 128.255 279.708C132.473 276.925 136.844 274.608 141.018 271.693C140.591 275.151 140.337 278.637 140.174 282.127ZM320.211 75.5024C319.185 75.2754 318.148 75.1338 317.112 74.9849C316.571 74.9074 314.886 75.0154 314.482 74.5916C314 74.087 314.834 70.2721 314.877 69.4533C315.137 64.5306 314.834 59.4554 314.459 54.5513C313.78 45.6728 311.459 37.4477 306.104 31.0547C303.439 27.8724 300.442 25.3476 296.802 24.1292C294.681 23.4193 292.496 23.0407 290.371 22.3524C288.656 21.7964 287.056 21.16 285.275 20.9397C281.723 20.5001 278.476 18.8854 275.009 17.9512C272.458 17.2639 268.356 15.6338 266.703 19.0984C265.401 17.262 264.092 15.883 262.45 14.513C260.878 13.2009 260.621 11.8902 258.695 13.4053C254.954 16.3495 251.45 19.9411 247.956 23.2908C244.693 26.4193 241.535 29.6954 238.115 32.5723C234.626 35.5068 235.288 40.4867 236.928 44.6151C240.015 52.3859 244.775 59.0289 248.942 65.6896C251.552 69.8622 254.17 74.0405 256.77 78.2214C259.255 82.2173 261.405 86.8422 264.309 90.4323C266.14 92.6954 268.326 89.736 269.978 88.3687C272.029 86.6701 274.044 84.9084 276.097 83.2149C280.374 79.6874 284.949 76.3832 289.463 73.3127C289.791 74.4323 290.12 75.552 290.448 76.6722C289.457 76.7616 288.117 76.4949 287.613 77.7774C286.892 79.6088 288.661 79.8492 288.971 80.8996C289.248 81.8373 288.112 84.3144 287.776 85.1596C287.021 87.064 285.966 88.7057 284.804 90.2731C280.206 96.4767 274.388 100.914 268.486 105.143C262.169 109.669 255.399 112.432 248.483 115.348C244.967 116.83 241.317 117.519 237.688 118.468C234.192 119.383 230.698 120.585 227.125 120.93C219.816 121.636 212.058 122.165 204.837 120.268C204.046 120.061 203.209 119.611 202.405 119.526C201.76 119.457 201.283 119.782 200.675 119.824C199.368 119.914 198.619 118.508 197.58 119.814C197.061 120.468 197.052 121.565 196.328 120.345C195.407 118.794 197.761 118.494 198.633 118.052C201.57 116.564 203.93 113.568 205.797 110.54C207.661 107.514 207.929 104.282 206.794 100.739C205.659 97.1973 203.077 94.7967 201.14 91.9205C200.202 90.5279 199.34 89.0546 198.311 87.7546C197.761 87.0603 196.875 86.3956 196.841 85.6951C196.801 84.881 197.206 84.4768 196.964 83.4874C196.901 83.2299 196.633 83.0836 196.575 82.8009C196.485 82.3501 196.625 81.9634 196.578 81.5241C196.469 80.5171 196.141 79.8844 195.676 79.0593C195.387 78.5435 194.963 77.5112 194.565 77.125C193.866 76.4478 192.914 76.7239 192.204 76.0374C191.081 74.9519 190.686 72.6645 189.692 71.3463C188.294 69.4916 187.995 71.3654 186.513 70.7746C185.246 70.2685 185.26 67.9744 184.237 67.1985C182.794 66.1057 181.579 68.1165 180.298 68.5642C178.613 69.1535 179.261 66.8661 177.759 66.6578C176.402 66.4696 174.523 69.7795 173.847 70.955C173.158 69.9888 172.404 68.3424 171.164 68.9322C169.863 69.5515 169.631 72.4339 168.68 73.4621C168.348 73.8198 168.418 74.0834 168.01 74.2483C167.483 74.4603 166.782 73.5406 166.101 73.8208C164.727 74.3869 164.895 76.5921 164.892 78.0209C163.271 77.736 162.141 77.5908 161.598 79.6921C161.067 81.7489 160.865 80.8412 159.157 81.5096C157.684 82.0849 157.477 83.768 157.234 85.4139C157.084 86.4374 157.223 86.8556 157.452 87.7887C157.741 88.9642 157.741 88.9497 157.27 90.0714C156.45 92.0296 156.401 94.1862 156.269 96.3407C156.13 98.6395 155.796 100.733 156.339 102.978C156.675 104.368 156.7 106.259 157.832 107.036C158.28 107.345 159.043 107.176 159.425 107.482C160.153 108.066 159.932 108.955 160.417 109.808C160.781 110.446 161.368 110.508 161.775 111.025C162.218 111.589 162.245 112.274 162.497 112.962C163.244 114.998 163.946 115.982 161.512 116.099C160.009 116.171 158.407 116.712 156.911 116.546C155.146 116.35 154.707 115.163 154.145 113.355C151.313 104.246 149.791 94.3728 146.061 85.7107C145.242 83.8084 141.881 76.0384 140.46 81.6998C139.262 86.4747 140.833 92.302 141.436 97.0546C139.545 95.0045 138.846 91.311 137.41 88.8076C136.349 86.958 133.028 82.4163 131.081 85.019C129.547 87.0702 129.931 91.4201 130.214 93.8724C130.661 97.7525 131.692 101.491 132.428 105.297C131.501 103.838 131.044 102.057 130.401 100.415C129.594 98.3557 128.588 96.4017 127.441 94.592C126.439 93.0107 125.318 91.5406 124.103 90.1924C123.175 89.1611 121.512 86.9042 120.193 86.7822C116.799 86.469 117.866 93.9587 118.383 96.0999C119.455 100.538 120.616 104.854 121.448 109.381C123.074 118.227 125.043 126.868 126.241 135.827C126.506 137.813 126.826 139.398 126.173 141.308C125.597 142.99 125 145.001 123.939 146.294C121.535 149.223 119.54 152.351 117.743 155.88C115.819 159.66 113.838 163.483 112.268 167.496C111.545 169.342 110.955 171.339 110.124 173.114C109.375 174.717 108.474 175.983 107.942 177.758C105.396 186.236 103.512 194.567 102.649 203.545C101.94 210.916 102.6 220.721 109.998 222.445C113.396 223.238 116.447 221.425 119.512 219.928C122.681 218.381 124.973 215.865 127.558 213.192C130.771 209.87 134.106 206.753 137.352 203.487C140.6 200.218 143.6 196.594 146.831 193.29C150.021 190.027 152.908 186.561 155.667 182.771C158.404 179.011 160.627 174.846 163.277 171.034C163.267 175.97 162.659 180.86 162.487 185.789C162.332 190.308 162.328 194.823 162.479 199.339C162.631 203.854 161.64 208.15 161.632 212.655C161.623 217.049 161.478 221.417 161.398 225.807C161.363 227.776 161.042 229.984 161.653 231.884C162.11 233.303 163.545 233.746 164.77 234.128C166.662 234.719 172.355 233.581 173.2 236.013C173.662 237.34 173.197 239.756 173.233 241.223C173.293 243.64 173.366 246.056 173.435 248.472C173.506 250.967 173.576 253.463 173.651 255.957C173.718 258.156 174.074 260.605 173.854 262.781C173.665 264.647 172.761 264.403 171.328 264.499C169.165 264.642 167.002 264.758 164.838 264.871C161.664 265.039 158.352 264.962 155.309 265.413C154.031 265.602 152.635 265.522 151.287 265.83C149.596 266.217 148.035 266.315 146.32 266.417C144.937 266.5 143.16 266.379 142.074 267.608C141.698 268.035 141.613 268.544 141.346 269.018C140.845 269.908 141.124 269.674 140.303 269.874C137.096 270.655 134.051 271.537 130.916 272.851C129.346 273.509 127.89 274.393 126.313 275.012C124.931 275.555 123.918 276.223 123.235 277.855C122.015 280.769 122.324 284.987 122.412 288.128C122.551 293.029 123.456 297.695 124.432 302.434C125.448 307.365 126.244 312.428 128.219 316.958C128.868 318.447 129.569 320.346 130.894 321.122C132.606 322.123 135.238 321.516 137.106 321.52C138.359 321.522 141.717 322.04 142.654 320.776C143.561 319.551 142.649 316.098 142.521 314.578C142.072 309.253 141.264 303.878 141.274 298.516C142.297 300.334 144.07 303.471 145.844 300.687C146.281 300.001 146.11 299.683 146.886 299.285C147.315 299.066 148.219 298.931 148.686 298.969C149.322 299.02 149.557 299.328 150.14 299.177C150.657 299.044 151.238 298.487 151.831 298.318C159.176 296.218 166.478 293.954 173.854 292.083C175.805 291.588 175.528 293.39 175.657 295.418C175.799 297.662 175.527 299.927 175.786 302.146C176.011 304.076 176.186 305.957 175.869 307.899C175.495 310.189 175.736 312.1 176.109 314.368C177.543 323.114 177.287 332.6 177.61 341.489C177.779 346.118 177.417 350.845 177.779 355.45C177.916 357.189 178.723 358.15 179.05 359.732C179.425 361.549 178.401 363.862 178.09 365.622C177.464 369.155 176.364 374.211 178.376 377.284C179.462 378.945 180.886 379.186 182.494 379.747C184.418 380.419 186.315 381.202 188.248 381.838C195.312 384.164 202.946 384.619 210.186 385.901C211.959 386.215 213.603 386.185 215.387 386.037C216.487 385.945 219.196 386.38 220.11 385.588C220.6 385.165 220.352 384.634 220.601 384.116C220.955 383.38 221.383 383.081 221.985 382.623C222.983 381.865 224.136 381.422 224.304 379.857C224.716 376.023 220.733 373.992 218.604 372.334C215.883 370.215 212.596 369.397 209.708 367.667C208.114 366.713 206.577 365.631 205.042 364.548C204.376 364.079 203.026 363.548 202.562 362.808C202.089 362.054 202.552 360.977 202.748 359.9C203.558 355.446 203.284 350.892 203.703 346.391C204.122 341.883 204.008 337.348 204.146 332.816C204.288 328.15 204.608 323.496 204.854 318.836C205.081 314.533 205.309 310.16 205.347 305.852C205.382 301.857 205.835 297.938 205.942 293.918C205.979 292.553 205.775 290.077 206.528 288.921C207.189 287.908 209.376 288.035 210.396 287.857C213.146 287.377 215.762 286.956 218.481 286.667C224.949 285.978 232.148 285.471 238.265 282.759C240.787 281.64 244.144 280.112 244.981 276.627C245.944 272.622 244.687 267.698 244.645 263.602C244.601 259.229 243.547 254.963 242.757 250.726C241.906 246.164 241.37 241.525 240.451 236.981C239.607 232.811 238.239 229.118 236.945 225.159C236.42 223.554 233.431 218.021 234.358 216.657C234.858 215.922 236.657 215.736 237.387 215.399C238.96 214.676 240.536 213.852 241.987 212.821C243.923 211.444 248.164 209.166 248.36 206.106C248.546 203.182 246.157 200.227 244.943 197.93C242.987 194.229 240.519 190.994 238.656 187.22C234.891 179.593 231.897 171.24 229.151 163.021C227.715 158.721 227.246 154.672 227.01 150.082C231.18 150.094 235.424 150.711 239.568 150.01C244.077 149.246 248.593 147.96 253.063 146.9C261.203 144.97 269.019 142.791 276.56 138.444C283.622 134.375 290.787 129.92 296.634 123.46C299.657 120.119 302.741 116.715 305.351 112.895C308.033 108.971 310.051 104.512 312.12 100.107C314.404 95.2443 316.222 90.134 317.659 84.8153C317.948 83.7458 317.95 82.3842 318.32 81.3742C318.737 80.2338 319.496 80.2038 320.289 79.6032C321.405 78.758 322.147 75.9299 320.211 75.5024Z" fill="black"/>
<path fill-rule="evenodd" clip-rule="evenodd" d="M223.125 21.0696C224.078 22.0548 228.187 25.5252 229.514 24.6814C231.151 23.6397 228.559 20.5017 227.861 19.7281C226.972 18.7438 223.799 15.7663 222.584 16.0427C220.155 16.5955 222.267 20.1829 223.125 21.0696Z" fill="black"/>
<path fill-rule="evenodd" clip-rule="evenodd" d="M225.154 56.6872C225.693 55.412 227.125 54.9431 227.788 53.7092C228.585 52.2256 228.951 50.9273 228.657 49.108C226.617 49.9341 224.296 52.4345 222.932 54.3895C221.791 56.0235 220.17 59.4378 223.147 59.4466C223.122 58.9607 223.095 58.4737 223.069 57.9883C223.962 58.1444 224.749 57.6482 225.154 56.6872Z" fill="black"/>
<path fill-rule="evenodd" clip-rule="evenodd" d="M215.437 35.4703C216.751 35.9251 217.837 35.8607 219.18 35.8962C220.155 35.9224 221.488 36.5671 222.278 35.8404C221.577 35.3519 222.463 35.3249 222.289 34.8486C222.144 34.4515 221.867 34.5816 221.642 34.2601C220.839 33.1148 220.141 33.1287 218.868 32.8905C217.882 32.705 216.432 32.2773 215.484 32.8671C214.487 33.488 214.101 35.0084 215.437 35.4703Z" fill="black"/>
<path fill-rule="evenodd" clip-rule="evenodd" d="M234.156 70.6013C235.006 69.7432 235.934 67.2589 236.105 65.9769C236.173 65.4745 235.872 65.0899 235.908 64.7203C235.977 64.0157 237.18 62.6541 235.919 62.0762C234.817 61.5701 233.78 65.5008 233.5 66.3584C233.213 67.2356 232.43 68.9446 232.67 69.7929C232.869 70.4969 233.581 71.1803 234.156 70.6013Z" fill="black"/>
<path fill-rule="evenodd" clip-rule="evenodd" d="M244.33 17.401C245.1 16.5418 245.587 15.5673 245.507 14.3858C245.444 13.4551 244.864 10.2462 244.212 10.3405C242.047 10.6549 243.021 18.8642 244.33 17.401Z" fill="black"/>
<path fill-rule="evenodd" clip-rule="evenodd" d="M198.622 160.866C198.443 160.082 197.796 155.284 196.676 155.611C195.825 155.859 196.709 160.081 196.748 160.637C196.831 161.799 194.974 161.761 194.112 161.603C192.743 161.355 192.853 160.39 192.648 158.894C192.571 158.328 192.275 155.772 191.295 156.708C190.632 157.341 191.106 160.492 191.161 161.212C191.352 163.703 191.576 167.956 192.808 170.217C193.298 171.12 193.74 171.565 194.255 170.408C194.777 169.237 193.596 165.669 193.389 164.472C194.363 164.586 197.168 164.206 197.755 165.423C198.29 166.534 197.433 169.709 199.152 169.966C200.172 170.119 199.987 168.698 199.889 167.605C199.683 165.312 199.124 163.081 198.622 160.866Z" fill="black"/>
<path fill-rule="evenodd" clip-rule="evenodd" d="M201.234 159.756C200.105 160.37 201.522 169.317 203.174 169.028C205.102 168.691 202.31 159.172 201.234 159.756Z" fill="black"/>
<path fill-rule="evenodd" clip-rule="evenodd" d="M199.975 156.794C199.836 158.808 202.012 159.559 202.115 157.37C202.194 155.681 200.122 154.676 199.975 156.794Z" fill="black"/>
<path fill-rule="evenodd" clip-rule="evenodd" d="M188.031 103.383C189.024 107.837 198.066 109.732 196.848 103.725C196.238 100.718 193.69 103.39 191.911 103.04C190.76 102.813 187.331 100.242 188.031 103.383Z" fill="black"/>
<path fill-rule="evenodd" clip-rule="evenodd" d="M185.76 95.4387C186.185 93.0557 181.852 90.425 180.279 91.081C177.979 92.0415 177.989 98.18 179.744 99.8119C179.975 100.026 180.682 100.539 181.029 100.13C181.576 99.4847 180.978 99.661 180.851 99.0164C180.648 97.9913 179.985 96.6752 180.645 95.5085C181.893 93.3054 185.151 98.8536 185.76 95.4387Z" fill="black"/>
<path fill-rule="evenodd" clip-rule="evenodd" d="M172.547 107.006C170.984 106.901 169.703 109.819 172.002 109.574C172.442 109.527 173.388 109.394 173.643 108.837C174.066 107.916 173.234 107.053 172.547 107.006Z" fill="black"/>
<path fill-rule="evenodd" clip-rule="evenodd" d="M248.343 37.4578C247.808 36.5272 246.687 35.0296 245.723 35.963C244.868 36.7907 245.017 38.8337 245.345 39.8489C246.228 42.582 248.312 45.0168 250.672 43.4422C249.852 41.4668 249.391 39.2795 248.343 37.4578Z" fill="black"/>
</svg>
